# xmcd
#
# Track frame offsets: 
#        150
#        22937
#        55125
#        73205
#
# Disc length: 1260 seconds
#
# Revision: 0
# Processed by: cddbd v1.5.2PL0 Copyright (c) Steve Scherf et al.
# Submitted via: ExactAudioCopy v0.99pb5
#
DISCID=2f04ea04
DTITLE=Ultravox - Moments From Eden
DYEAR=2011
DGENRE=Synthpop
TTITLE0=New Europeans
TTITLE1=Herr X
TTITLE2=White China
TTITLE3=Love's Great Adventure
EXTD=
EXTT0=
EXTT1=
EXTT2=
EXTT3=
PLAYORDER=
